<svg width="31" height="20" viewBox="0 0 31 20" fill="none" xmlns="http://www.w3.org/2000/svg">
<path d="M28.0012 19.9992H2.00008C1.46963 19.9992 0.960899 19.7884 0.585811 19.4134C0.210722 19.0383 0 18.5295 0 17.9991L0 9.5854H1.44089L1.76591 8.7987H2.49344L2.81762 9.58207H5.65274V8.98621L5.90608 9.58623H7.37781L7.63115 8.97621V9.58457H14.6756V8.29785H14.809C14.904 8.30118 14.9315 8.30951 14.9315 8.46785V9.58623H18.5758V9.28705C18.9483 9.47623 19.3875 9.58707 19.8533 9.58707L19.9325 9.58623H19.9283H21.4617L21.7901 8.80287H22.5176L22.8385 9.58623H25.7936V8.8412L26.2403 9.58623H28.6037V4.66603H26.2644V5.24689L25.9369 4.66603H23.5318V5.24689L23.231 4.66603H19.9833C19.4913 4.64116 19.001 4.74242 18.5591 4.96021L18.5766 4.95271V4.66603H16.3365V4.95271C16.0654 4.73899 15.7229 4.63676 15.379 4.66686H15.384H7.1978L6.64861 5.93775L6.08442 4.66686H3.50598V5.24772L3.2218 4.66686H1.02171L0.0025001 7.00029V2.00008C0.0025001 1.46963 0.213223 0.960899 0.588311 0.585811C0.963399 0.210722 1.47213 0 2.00258 0H28.0037C28.5341 0 29.0429 0.210722 29.4179 0.585811C29.793 0.960899 30.0038 1.46963 30.0038 2.00008V10.7338H28.4429C28.4179 10.7321 28.3879 10.7321 28.3587 10.7321C27.997 10.7321 27.6612 10.8405 27.3811 11.0263L27.3878 11.0221V10.7338H25.0794C24.7187 10.7139 24.3619 10.8163 24.0668 11.0246L24.0718 11.0213V10.7329H19.95V11.0213C19.6126 10.831 19.2315 10.7316 18.8441 10.7329H18.8116H18.8133H16.094V11.0213C15.7387 10.7937 15.3172 10.6924 14.8973 10.7338L14.9048 10.7329H11.8622L11.1655 11.4863L10.5138 10.7329H5.96858V15.6565H10.4288L11.1463 14.8915L11.8222 15.6565H14.5714V14.5039H14.9548C15.3234 14.5183 15.691 14.4568 16.0348 14.3231L16.0165 14.3298V15.6582H18.2833V14.3756H18.3924C18.5308 14.3756 18.5449 14.3806 18.5449 14.5206V15.659H25.4336L25.5177 15.6607C25.9127 15.6607 26.2811 15.5423 26.5878 15.3398L26.5803 15.344V15.659H28.7654L28.8695 15.6607C29.2787 15.6607 29.6679 15.5765 30.0213 15.424L30.0021 15.4315V17.9999C30.0021 18.5304 29.7914 19.0391 29.4163 19.4142C29.0412 19.7893 28.5325 20 28.002 20L28.0012 19.9992ZM17.5882 14.9665H16.7399V11.4371H18.6866C19.0382 11.4046 19.3922 11.4637 19.7142 11.6088L19.7008 11.6038C19.9617 11.7472 20.1358 12.0205 20.1358 12.3338L20.1342 12.3897V12.3872L20.135 12.4189C20.135 12.8239 19.8908 13.1722 19.5408 13.3239L19.5341 13.3264C19.7017 13.3864 19.8417 13.4889 19.9458 13.6214L19.9475 13.6231C20.0652 13.8178 20.1144 14.0463 20.0875 14.2723L20.0883 14.2673V14.9656H19.2416V14.5239C19.2817 14.2835 19.2335 14.0366 19.1058 13.8289L19.1083 13.8331C19.0203 13.7663 18.9197 13.7181 18.8126 13.6913C18.7054 13.6645 18.594 13.6597 18.4849 13.6772L18.4899 13.6764H17.5882V14.9656V14.9665ZM17.5882 12.1663V12.9589H18.6133C18.758 12.9722 18.9037 12.9463 19.035 12.8839L19.03 12.8864C19.0836 12.8517 19.1277 12.8042 19.1583 12.7482C19.1888 12.6922 19.2049 12.6294 19.205 12.5655L19.2041 12.5464C19.2083 12.4827 19.1943 12.4199 19.1637 12.3639C19.1332 12.3078 19.0874 12.2616 19.0316 12.2305L19.03 12.2297C18.9035 12.1731 18.7646 12.1502 18.6266 12.163H18.6299L17.5882 12.1663ZM10.0671 14.9656H6.72778V11.4371H10.1196L11.1571 12.5939L12.2297 11.4371H14.924C15.8807 11.4371 16.3457 11.818 16.3457 12.5997C16.3457 13.3956 15.8648 13.7822 14.879 13.7822H13.8247V14.9648H12.1855L11.1471 13.7989L10.0679 14.9656H10.0671ZM12.9847 11.8155L11.6897 13.2072L12.9847 14.6439V11.8155ZM7.56865 13.5281V14.2298H9.64207L10.6004 13.1947L9.67874 12.1663H7.56782V12.808H9.41956V13.5272L7.56865 13.5281ZM13.8247 12.1672V13.0655H14.914C15.2473 13.0655 15.439 12.8955 15.439 12.5989C15.439 12.3155 15.2606 12.1663 14.9231 12.1663L13.8247 12.1672ZM28.857 14.9673H27.2286V14.2089H28.8504C28.9717 14.2257 29.0948 14.1939 29.1929 14.1206L29.1921 14.1214C29.2234 14.0924 29.2483 14.0572 29.2654 14.018C29.2825 13.9789 29.2913 13.9366 29.2912 13.8939V13.8806C29.2913 13.8384 29.2821 13.7967 29.2644 13.7584C29.2467 13.7201 29.2209 13.6862 29.1887 13.6589C29.1025 13.5966 28.9961 13.5686 28.8904 13.5806H28.892L28.7362 13.5756C27.9745 13.5556 27.112 13.5322 27.112 12.488C27.112 11.9797 27.4303 11.4371 28.3212 11.4371H30.0021V12.1888H28.4645C28.3458 12.1755 28.2258 12.1994 28.1212 12.2572L28.1245 12.2555C28.0834 12.2826 28.0503 12.3203 28.0287 12.3645C28.0072 12.4088 27.9979 12.4581 28.002 12.5072V12.5064V12.5155C28.002 12.5717 28.0197 12.6264 28.0526 12.6719C28.0856 12.7174 28.132 12.7513 28.1853 12.7689L28.187 12.7697C28.2927 12.8023 28.4033 12.8158 28.5137 12.8097H28.5112L28.9687 12.8214C29.3136 12.787 29.6581 12.8896 29.9279 13.1072L29.9254 13.1055C29.9504 13.1255 29.9721 13.1472 29.9913 13.1714L29.9921 13.1722L30.0021 14.5156C29.8619 14.6794 29.6837 14.8062 29.483 14.8848C29.2823 14.9634 29.0653 14.9915 28.8512 14.9665L28.857 14.9673ZM25.5661 14.9673H23.9227V14.2089H25.5577C25.6801 14.2249 25.8039 14.1933 25.9036 14.1206L25.9019 14.1214C25.933 14.0923 25.9578 14.057 25.9747 14.0179C25.9917 13.9788 26.0003 13.9366 26.0003 13.8939V13.8856C26.0002 13.8427 25.9911 13.8003 25.9734 13.7612C25.9557 13.7221 25.9299 13.6873 25.8977 13.6589C25.81 13.5965 25.7023 13.5686 25.5952 13.5806H25.5969L25.4419 13.5756C24.6827 13.5556 23.821 13.5322 23.821 12.488C23.821 11.9797 24.1377 11.4371 25.0269 11.4371H26.7169V12.1888H25.1702C25.0523 12.1757 24.9331 12.1996 24.8294 12.2572L24.8327 12.2555C24.7889 12.2856 24.7541 12.327 24.7319 12.3753C24.7097 12.4236 24.701 12.477 24.7066 12.5298C24.7122 12.5827 24.732 12.633 24.7639 12.6755C24.7958 12.718 24.8386 12.7511 24.8877 12.7714L24.8894 12.7722C24.9964 12.805 25.1084 12.8186 25.2202 12.8122H25.2177L25.6719 12.8239C26.0186 12.7905 26.3647 12.8933 26.6369 13.1105L26.6344 13.108C26.726 13.209 26.7957 13.3279 26.839 13.4571C26.8823 13.5863 26.8984 13.7232 26.8861 13.8589V13.8547C26.8886 14.5906 26.4428 14.9656 25.5636 14.9656L25.5661 14.9673ZM23.4176 14.9673H20.6009V11.4363H23.4151V12.1655H21.4426V12.8072H23.3693V13.5264H21.4426V14.2281L23.4176 14.2314V14.9648V14.9673ZM25.0594 8.89537H23.3418L23.0135 8.10867H21.2617L20.9434 8.89537H19.9567C19.5135 8.91873 19.0772 8.77911 18.7299 8.50286L18.7341 8.50536C18.5691 8.32328 18.4439 8.10882 18.3664 7.87565C18.289 7.64249 18.2609 7.39574 18.2841 7.15113L18.2833 7.1578C18.2618 6.90869 18.2912 6.65782 18.3697 6.42043C18.4482 6.18305 18.5742 5.9641 18.7399 5.77691L18.7383 5.77857C18.9133 5.62555 19.1179 5.51019 19.3394 5.43965C19.5609 5.36911 19.7946 5.34491 20.0258 5.36856L20.0192 5.36772H20.8359V6.12026H20.0358C19.9188 6.10518 19.7998 6.1161 19.6875 6.15226C19.5751 6.18841 19.4721 6.24891 19.3858 6.32943L19.3866 6.3286C19.2085 6.55678 19.122 6.8433 19.1441 7.13196V7.1278C19.1176 7.42437 19.2009 7.72036 19.3783 7.9595L19.3758 7.95617C19.5415 8.09156 19.7535 8.15677 19.9667 8.13784H19.9633H20.3417L21.5342 5.36272H22.801L24.2285 8.6962V5.36272H25.5127L26.9945 7.81949V5.36272H27.8612V8.88954H26.6578L25.0577 6.24109V8.88954L25.0594 8.89537ZM22.1434 5.96358L21.5626 7.37031H22.7268L22.1434 5.96358ZM13.9772 8.8937H13.1339V5.36522H15.074C15.4281 5.32848 15.7856 5.38868 16.1082 5.5394L16.0957 5.5344C16.2254 5.60612 16.3335 5.71127 16.4088 5.83892C16.4842 5.96656 16.5239 6.11205 16.524 6.26026L16.5224 6.3186V6.3161V6.34193C16.5224 6.5344 16.4669 6.7228 16.3626 6.88452C16.2582 7.04624 16.1094 7.1744 15.934 7.25364L15.9273 7.25614C16.0948 7.31947 16.2357 7.42114 16.3432 7.55115L16.3448 7.55282C16.4638 7.7483 16.5128 7.97835 16.484 8.20534L16.4849 8.20034V8.89287H15.634L15.6307 8.44785V8.38118C15.6609 8.16359 15.6128 7.94232 15.4948 7.75699L15.4973 7.76116C15.409 7.69631 15.3088 7.6496 15.2024 7.62371C15.096 7.59782 14.9855 7.59327 14.8773 7.61032L14.8823 7.60948H13.9781V8.89287L13.9772 8.8937ZM13.9772 6.09942V6.88279H15.0006C15.1452 6.89847 15.2912 6.87244 15.4215 6.80778L15.4173 6.80945C15.4707 6.777 15.5148 6.73136 15.5455 6.67692C15.5761 6.62249 15.5923 6.56108 15.5923 6.4986L15.5915 6.47527C15.5957 6.41195 15.5813 6.3496 15.5501 6.29436C15.5188 6.23913 15.4721 6.19424 15.4156 6.16526L15.414 6.16442C15.2872 6.11001 15.149 6.08714 15.0115 6.09775H15.014L13.9772 6.09942ZM5.04688 8.8937H3.33347L3.00929 8.107H1.25255L0.925872 8.8937H0.00916705L1.52006 5.36522H2.77262L4.20684 8.70453V5.36522H5.58273L6.68611 7.75782L7.70032 5.36522H9.10455V8.89204H8.23784L8.23618 6.13192L7.01363 8.89287H6.2736L5.04771 6.12776V8.89287L5.04688 8.8937ZM2.12676 5.96358L1.55256 7.37031H2.70428L2.12676 5.96358ZM17.8674 8.89287H17.0074V5.36522H17.8682V8.89204L17.8674 8.89287ZM12.5455 8.89287H9.73374V5.36522H12.5505V6.09859H10.5771V6.73445H12.503V7.45864H10.5754V8.16367H12.5489V8.89204L12.5455 8.89287Z" fill="white"/>
</svg>
