<svg width="40" height="38" viewBox="0 0 40 38" fill="none" xmlns="http://www.w3.org/2000/svg">
<path d="M32.0402 20.8912L14.5833 18.1556L16.8975 28.558L32.0402 20.8912Z" fill="#D12053"/>
<path d="M32.0402 20.8912L18.8858 2.61461L14.5865 18.1589L32.0402 20.8912Z" fill="#E2136E"/>
<path d="M14.1784 17.9482L0.395264 0.333333L18.4447 2.48952L14.1784 17.9482Z" fill="#D12053"/>
<path d="M7.90072 10.5876L0.24707 3.37504H2.26171L7.90072 10.5876Z" fill="#9E1638"/>
<path d="M35.7632 12.0064L32.524 20.7924L27.2734 13.5305L35.7632 12.0064Z" fill="#D12053"/>
<path d="M18.9352 28.0313L31.6452 22.9256L32.1785 21.3027L18.9352 28.0313Z" fill="#E2136E"/>
<path d="M8.76978 37.6667L14.2146 18.5671L16.9765 30.994L8.76978 37.6667Z" fill="#9E1638"/>
<path d="M36.2702 12.0755L34.9337 15.7032L39.753 15.6242L36.2702 12.0755Z" fill="#E2136E"/>
</svg>
