<svg width="33" height="21" viewBox="0 0 33 21" fill="none" xmlns="http://www.w3.org/2000/svg">
<path d="M1.98236 0.750459C1.16421 0.750459 0.500488 1.41383 0.500488 2.23234V19.2686C0.500488 20.0869 1.16431 20.7504 1.98236 20.7504H30.8657C31.6839 20.7504 32.3476 20.0871 32.3476 19.2686V2.2323C32.3476 1.41393 31.6838 0.750427 30.8657 0.750427H1.98233L1.98236 0.750459ZM10.9433 3.15791C12.7612 3.15791 14.4308 3.79036 15.7413 4.84679C14.6387 5.83338 13.8163 7.12959 13.4105 8.59879H14.0465C14.421 7.38675 15.1013 6.30765 15.9981 5.45189C16.8948 6.30765 17.5751 7.38675 17.9497 8.59879H18.5956C18.1842 7.13733 17.3607 5.84886 16.2588 4.8687C17.5719 3.79886 19.248 3.15788 21.0737 3.15788C25.2868 3.15788 28.7021 6.57354 28.7021 10.7873C28.7021 15.001 25.2868 18.4166 21.0737 18.4166C19.2177 18.4166 17.5157 17.7542 16.1931 16.6521C17.3763 15.6228 18.2485 14.243 18.6474 12.6732H18.0253C17.6711 13.9907 16.9583 15.1625 15.998 16.0789C15.0379 15.1625 14.326 13.9907 13.9718 12.6732H13.3796C13.7808 14.2202 14.6416 15.5808 15.807 16.6004C14.4868 17.6888 12.7916 18.343 10.9433 18.343C6.73026 18.343 3.31497 14.9437 3.31497 10.7504C3.31497 6.55714 6.73026 3.15791 10.9433 3.15791ZM20.5014 8.52115C19.5849 8.52115 18.6931 9.32248 18.6931 10.8271C18.6931 11.8248 19.1748 12.4831 20.1223 12.4831C20.3902 12.4832 20.817 12.3737 20.817 12.3737L20.9583 11.5018C20.9583 11.5018 20.5688 11.6989 20.3014 11.6989C19.7382 11.6989 19.5122 11.2657 19.5122 10.8002C19.5122 9.85586 19.9968 9.33621 20.5363 9.33621C20.9408 9.33621 21.2658 9.56513 21.2658 9.56513L21.3952 8.7172C21.3952 8.7172 20.9142 8.52115 20.5014 8.52115ZM28.2074 8.59481L27.4103 8.59679L27.2391 9.64576C27.2391 9.64576 26.9394 9.2387 26.4708 9.2387C25.7421 9.2387 25.1352 10.1043 25.1352 11.0998C25.1352 11.7424 25.4582 12.3726 26.1205 12.3726C26.5968 12.3726 26.8609 12.0453 26.8609 12.0453L26.8261 12.3249H27.6004L28.2074 8.59481ZM5.37507 8.60573L4.74013 12.3448H5.50545L5.98914 9.52535L6.0608 12.3448H6.60815L7.62927 9.52535L7.17643 12.3448H7.98952L8.61653 8.60573H7.35857L6.57532 10.8997L6.53452 8.60577H5.3751L5.37507 8.60573ZM13.3707 8.84857C13.3534 8.86592 12.9079 11.4348 12.9079 11.7476C12.9079 12.2109 13.1676 12.4178 13.5329 12.4145C13.7947 12.4122 13.9974 12.3465 14.0912 12.3189C14.101 12.3163 14.1201 12.311 14.1201 12.311L14.2186 11.6422C14.1651 11.6422 14.0861 11.6651 14.0166 11.6651C13.7438 11.6651 13.7136 11.5199 13.7309 11.4123L13.9509 10.0478H14.3659L14.4664 9.30834H14.0753L14.1549 8.84857H13.3707ZM22.6213 9.22478C22.0871 9.22478 21.6778 9.40092 21.6778 9.40092L21.5643 10.0876C21.5643 10.0876 21.9024 9.94729 22.4133 9.94729C22.7033 9.94729 22.9158 9.98048 22.9158 10.222C22.9158 10.3687 22.89 10.423 22.89 10.423C22.89 10.423 22.6606 10.4031 22.5546 10.4031C21.881 10.4031 21.1732 10.6983 21.1732 11.5864C21.1732 12.2862 21.6378 12.4463 21.9256 12.4463C22.4752 12.4463 22.7122 12.0812 22.7248 12.0801L22.6989 12.3846H23.3846L23.6912 10.1872C23.6912 9.25475 22.8971 9.22475 22.6213 9.22475V9.22478ZM9.75802 9.22876C9.22191 9.22876 8.81057 9.4049 8.81057 9.4049L8.69713 10.0916C8.69713 10.0916 9.0363 9.95127 9.54904 9.95127C9.84019 9.95127 10.0536 9.98459 10.0536 10.226C10.0536 10.3726 10.0277 10.427 10.0277 10.427C10.0277 10.427 9.7977 10.4071 9.69136 10.4071C9.01516 10.4071 8.30503 10.7018 8.30503 11.5894C8.30503 12.2888 8.77057 12.4493 9.05939 12.4493C9.61101 12.4493 9.84888 12.0841 9.86156 12.0831L9.83566 12.3876H10.5244L10.8319 10.1911C10.8319 9.25927 10.0348 9.22873 9.75802 9.22873V9.22876ZM12.1903 9.22876C11.6146 9.22876 11.0299 9.46115 11.0299 10.2548C11.0299 11.1541 12.0043 11.0633 12.0043 11.4421C12.0043 11.695 11.7323 11.7158 11.5226 11.7158C11.1595 11.7158 10.8331 11.5904 10.8319 11.5964L10.7274 12.2831C10.7462 12.2889 10.9483 12.3796 11.6012 12.3796C11.7765 12.3796 12.7785 12.4241 12.7785 11.3804C12.7785 10.4046 11.851 10.5981 11.851 10.2061C11.851 10.0109 12.0016 9.9493 12.2779 9.9493C12.3877 9.9493 12.8104 9.98414 12.8104 9.98414L12.9079 9.29045C12.9079 9.29054 12.6351 9.22876 12.1903 9.22876ZM15.7891 9.22876C14.9891 9.22892 14.3968 10.0892 14.3968 11.061C14.3968 12.1826 15.1389 12.4493 15.7712 12.4493C16.3548 12.4493 16.6121 12.3189 16.6121 12.3189L16.7514 11.5536C16.7514 11.5536 16.3075 11.7487 15.9065 11.7487C15.0522 11.7487 15.2019 11.1127 15.2019 11.1127H16.8191C16.8191 11.1127 16.9236 10.5988 16.9236 10.3892C16.9236 9.86624 16.6626 9.22876 15.7891 9.22876ZM18.6862 9.26159C18.3258 9.26159 18.0582 9.74627 18.0582 9.74627L18.1298 9.3014H17.3814L16.8789 12.3727H17.7059C17.9401 11.0611 17.9829 9.99621 18.5419 10.1911C18.6397 9.6835 18.7346 9.48739 18.8414 9.27255C18.8414 9.27255 18.7913 9.26159 18.6862 9.26159ZM25.387 9.26159C25.0266 9.26159 24.759 9.74627 24.759 9.74627L24.8307 9.3014H24.0823L23.5797 12.3727H24.4057C24.64 11.0611 24.6839 9.99621 25.2427 10.1911C25.3407 9.6835 25.4355 9.48739 25.5423 9.27255C25.5423 9.27255 25.492 9.26159 25.387 9.26159ZM15.7851 9.92143C16.2394 9.92143 16.1563 10.4343 16.1563 10.4758H15.2616C15.2616 10.4228 15.3462 9.92143 15.7851 9.92143ZM26.5962 9.98115C26.8854 9.98105 27.0341 10.1764 27.0341 10.636C27.0341 11.053 26.8238 11.6103 26.3882 11.6103C26.0991 11.6103 25.9632 11.3716 25.9632 10.9973C25.9632 10.3852 26.2432 9.98115 26.5962 9.98115ZM22.6223 11.0261C22.7402 11.0263 22.7646 11.0377 22.7845 11.0431C22.7816 11.0426 22.7811 11.0431 22.7925 11.045C22.8074 11.1818 22.7098 11.8233 22.2381 11.8233C21.9949 11.8233 21.9326 11.6299 21.9326 11.5158C21.9326 11.2932 22.0484 11.0261 22.6223 11.0261ZM9.75904 11.0291C9.89302 11.0293 9.90764 11.0442 9.93022 11.048C9.94519 11.1847 9.84722 11.8253 9.37388 11.8253C9.12971 11.8253 9.06637 11.6328 9.06637 11.5188C9.06637 11.2963 9.18293 11.0291 9.75904 11.0291Z" fill="white"/>
</svg>
