<svg width="104" height="80" viewBox="0 0 104 80" fill="none" xmlns="http://www.w3.org/2000/svg">
<g clip-path="url(#clip0_151_36)">
<path d="M18.765 79.8247V74.5155C18.765 72.4845 17.5279 71.1546 15.4041 71.1546C14.3423 71.1546 13.1876 71.5052 12.3938 72.6598C11.7753 71.6907 10.8887 71.1546 9.55878 71.1546C8.67218 71.1546 7.78558 71.4227 7.08455 72.3918V71.3299H5.22888V79.8247H7.08455V75.134C7.08455 73.6289 7.87837 72.9175 9.11548 72.9175C10.3526 72.9175 10.9711 73.7113 10.9711 75.134V79.8247H12.8268V75.134C12.8268 73.6289 13.7134 72.9175 14.8577 72.9175C16.0949 72.9175 16.7134 73.7113 16.7134 75.134V79.8247H18.765ZM46.2907 71.3299H43.2804V68.7629H41.4248V71.3299H39.7443V73.0103H41.4248V76.9072C41.4248 78.8557 42.2186 80 44.3423 80C45.1361 80 46.0227 79.732 46.6413 79.3814L46.1052 77.7835C45.5691 78.134 44.9505 78.2268 44.5072 78.2268C43.6206 78.2268 43.2701 77.6907 43.2701 76.8144V73.0103H46.2804V71.3299H46.2907ZM62.0433 71.1443C60.9815 71.1443 60.2701 71.6804 59.8268 72.3814V71.3196H57.9712V79.8144H59.8268V75.0309C59.8268 73.6186 60.4454 72.8144 61.6 72.8144C61.9505 72.8144 62.3938 72.9072 62.7547 72.9897L63.2907 71.2165C62.9196 71.1443 62.3938 71.1443 62.0433 71.1443ZM38.2392 72.0309C37.3526 71.4124 36.1155 71.1443 34.7856 71.1443C32.6619 71.1443 31.2495 72.2062 31.2495 73.8866C31.2495 75.299 32.3114 76.1031 34.167 76.3608L35.0536 76.4536C36.0227 76.6289 36.5588 76.8969 36.5588 77.3402C36.5588 77.9588 35.8474 78.4021 34.6103 78.4021C33.3732 78.4021 32.3938 77.9588 31.7753 77.5155L30.8887 78.9278C31.8577 79.6392 33.1876 79.9897 34.5175 79.9897C36.9918 79.9897 38.4145 78.8351 38.4145 77.2474C38.4145 75.7423 37.2598 74.9485 35.4969 74.6804L34.6103 74.5876C33.8165 74.4948 33.198 74.3196 33.198 73.7938C33.198 73.1753 33.8165 72.8247 34.7959 72.8247C35.8577 72.8247 36.9196 73.268 37.4557 73.5361L38.2392 72.0309ZM87.6103 71.1443C86.5485 71.1443 85.8371 71.6804 85.3938 72.3814V71.3196H83.5382V79.8144H85.3938V75.0309C85.3938 73.6186 86.0124 72.8144 87.167 72.8144C87.5175 72.8144 87.9608 72.9072 88.3217 72.9897L88.8577 71.2371C88.4969 71.1443 87.9712 71.1443 87.6103 71.1443ZM63.899 75.5773C63.899 78.1443 65.6722 80 68.4145 80C69.6516 80 70.5382 79.732 71.4248 79.0309L70.5382 77.5258C69.8268 78.0619 69.1258 78.3196 68.3217 78.3196C66.8165 78.3196 65.7547 77.2577 65.7547 75.5773C65.7547 73.9794 66.8165 72.9175 68.3217 72.8351C69.1155 72.8351 69.8268 73.1031 70.5382 73.6289L71.4248 72.1237C70.5382 71.4124 69.6516 71.1546 68.4145 71.1546C65.6722 71.1443 63.899 73.0103 63.899 75.5773ZM81.0639 75.5773V71.3299H79.2083V72.3918C78.5897 71.5979 77.7031 71.1546 76.5485 71.1546C74.1567 71.1546 72.301 73.0103 72.301 75.5773C72.301 78.1443 74.1567 80 76.5485 80C77.7856 80 78.6722 79.5567 79.2083 78.7629V79.8247H81.0639V75.5773ZM74.2495 75.5773C74.2495 74.0722 75.2186 72.8351 76.8165 72.8351C78.3217 72.8351 79.3835 73.9897 79.3835 75.5773C79.3835 77.0825 78.3217 78.3196 76.8165 78.3196C75.2289 78.2268 74.2495 77.0722 74.2495 75.5773ZM52.0433 71.1443C49.5691 71.1443 47.7959 72.9175 47.7959 75.567C47.7959 78.2268 49.5691 79.9897 52.1361 79.9897C53.3732 79.9897 54.6103 79.6392 55.5897 78.8351L54.7031 77.5052C53.9918 78.0412 53.1052 78.3918 52.2289 78.3918C51.0742 78.3918 49.9299 77.8557 49.6619 76.3608H55.9402C55.9402 76.0928 55.9402 75.9175 55.9402 75.6495C56.0227 72.9175 54.4248 71.1443 52.0433 71.1443ZM52.0433 72.7423C53.198 72.7423 53.9918 73.4536 54.167 74.7732H49.7443C49.9196 73.6289 50.7134 72.7423 52.0433 72.7423ZM98.1464 75.5773V67.9691H96.2907V72.3918C95.6722 71.5979 94.7856 71.1546 93.6309 71.1546C91.2392 71.1546 89.3835 73.0103 89.3835 75.5773C89.3835 78.1443 91.2392 80 93.6309 80C94.8681 80 95.7547 79.5567 96.2907 78.7629V79.8247H98.1464V75.5773ZM91.332 75.5773C91.332 74.0722 92.301 72.8351 93.899 72.8351C95.4041 72.8351 96.466 73.9897 96.466 75.5773C96.466 77.0825 95.4041 78.3196 93.899 78.3196C92.301 78.2268 91.332 77.0722 91.332 75.5773ZM29.2083 75.5773V71.3299H27.3526V72.3918C26.734 71.5979 25.8474 71.1546 24.6928 71.1546C22.301 71.1546 20.4454 73.0103 20.4454 75.5773C20.4454 78.1443 22.301 80 24.6928 80C25.9299 80 26.8165 79.5567 27.3526 78.7629V79.8247H29.2083V75.5773ZM22.3114 75.5773C22.3114 74.0722 23.2804 72.8351 24.8784 72.8351C26.3835 72.8351 27.4454 73.9897 27.4454 75.5773C27.4454 77.0825 26.3835 78.3196 24.8784 78.3196C23.2804 78.2268 22.3114 77.0722 22.3114 75.5773Z" fill="white"/>
<path d="M65.4969 6.81444H37.6206V56.8969H65.4969V6.81444Z" fill="#FF5A00"/>
<path d="M39.4763 31.8557C39.4763 21.6804 44.2598 12.6495 51.6 6.81443C46.1979 2.56701 39.3835 0 31.9505 0C14.3423 0 0.0948486 14.2474 0.0948486 31.8557C0.0948486 49.4639 14.3423 63.7113 31.9505 63.7113C39.3835 63.7113 46.1979 61.1443 51.6 56.8969C44.2495 51.1443 39.4763 42.0309 39.4763 31.8557Z" fill="#EB001B"/>
<path d="M103.105 31.8557C103.105 49.4639 88.8577 63.7113 71.2495 63.7113C63.8165 63.7113 57.002 61.1443 51.6 56.8969C59.033 51.0516 63.7237 42.0309 63.7237 31.8557C63.7237 21.6804 58.9402 12.6495 51.6 6.81443C56.9917 2.56701 63.8062 0 71.2391 0C88.8577 0 103.105 14.3402 103.105 31.8557Z" fill="#F79E1B"/>
</g>
<defs>
<clipPath id="clip0_151_36">
<rect width="103.01" height="80" fill="white" transform="translate(0.0948486)"/>
</clipPath>
</defs>
</svg>
