<svg width="66" height="30" viewBox="0 0 66 30" fill="none" xmlns="http://www.w3.org/2000/svg">
<path d="M42.383 11.8422H31.094C30.8704 11.8422 30.7587 12.0099 30.7587 12.1775V13.0717C30.7587 13.2952 30.9263 13.407 31.094 13.407H39.5328V18.1015C39.3093 17.7661 39.0298 17.4308 38.7504 17.0955C37.7445 16.0896 36.6826 15.5866 35.5649 15.5866C34.6707 15.5866 33.9442 16.0337 33.3294 16.8161C32.8265 17.4867 32.547 18.2691 32.547 18.9956C32.547 19.7222 32.6588 20.6722 33.2177 21.5664C33.8883 22.6282 35.006 22.9636 36.012 22.9636C37.2974 22.9636 38.3592 22.0694 38.3592 20.8958C38.3592 20.2251 38.0239 19.6663 37.4091 19.2751L36.7944 18.9398V19.9457C36.7385 20.2251 36.2914 20.6163 35.7884 20.6163C35.3413 20.6163 34.9501 20.4487 34.6707 20.1692C34.503 20.0016 34.3913 19.6663 34.4472 19.4427C34.4472 19.1074 34.5589 18.828 34.7825 18.5485C35.0619 18.2132 35.3413 18.0456 35.7884 18.0456C36.9062 18.0456 37.8562 18.5485 38.6386 19.6663C39.2534 20.6163 39.5887 21.5105 39.5887 22.5165V24.8637L41.2653 25.8696C41.3212 25.9255 41.3771 25.9255 41.4329 25.9255C41.6565 25.9255 41.7683 25.7579 41.7683 25.5902V13.4629H42.4389C42.6624 13.4629 42.7742 13.2952 42.7742 13.1276V12.2334C42.7742 12.0099 42.6066 11.8422 42.383 11.8422Z" fill="#ED1C24"/>
<path d="M64.9611 11.8422H50.6542C50.4307 11.8422 50.3189 12.0099 50.3189 12.1775V13.7423C48.9217 12.2893 47.6922 11.5628 46.5745 11.5628C45.5127 11.5628 44.6185 11.7863 43.8361 12.4011C43.1096 12.9599 42.6625 13.6865 42.6625 14.5247C42.6625 17.0396 45.4568 16.9837 46.1833 16.6484C46.2951 16.5925 46.4627 16.4808 46.6304 16.4808C47.1893 16.4808 47.4128 16.9279 47.4128 17.3191C47.4128 17.8779 46.5745 18.3809 45.5686 18.3809C45.0097 18.3809 44.6744 18.2132 44.4508 17.8779L44.0037 17.2073L43.7243 17.9897C43.6684 18.1574 43.5567 18.3809 43.5567 18.6603C43.5567 19.2192 43.8361 19.7781 44.3949 20.281C44.8979 20.7281 45.5127 20.9517 46.1833 20.9517C47.2452 20.9517 48.1393 20.5605 48.6982 19.7781C49.2012 19.1633 49.4247 18.4368 49.4247 17.5985C49.4247 17.1514 49.2571 16.6484 48.8659 16.0896C48.4188 15.4189 47.8599 15.0836 47.2452 15.0836C47.0216 15.0836 46.7422 15.1395 46.4627 15.2513C46.351 15.3072 46.1274 15.363 46.0715 15.363C45.9598 15.363 45.7921 15.3072 45.6803 15.1395C45.5686 15.0277 45.4568 14.8601 45.4568 14.5806C45.4568 13.9659 46.0157 13.3511 47.0216 13.3511H47.0775C47.7481 13.3511 48.4188 13.6865 49.0335 14.3012C49.5365 14.8042 49.9277 15.3072 50.263 15.866V24.7519L51.9396 25.7579C51.9955 25.8138 52.0514 25.8138 52.1073 25.8138C52.3308 25.8138 52.4426 25.6461 52.4426 25.4785V13.4629H55.0133V21.2311L57.0253 22.0694H57.137C57.3047 22.0694 57.4723 21.9576 57.4723 21.7341V21.6782C57.8077 19.3869 58.8136 17.822 60.4902 16.872V17.3191C60.4902 17.6544 60.4902 18.4927 60.5461 18.9398C60.5461 19.2192 60.5461 19.3869 60.602 19.5545C60.602 20.4487 60.7137 21.79 60.9932 22.7959C61.552 24.696 62.5021 25.1431 63.1727 25.1431H63.2286C63.6198 25.1431 63.9551 25.0314 64.1787 24.8078C64.2905 24.696 64.4581 24.4725 64.4581 24.0813C64.4581 23.746 64.4022 23.4665 64.2905 23.243L64.1228 22.9636L63.7875 23.0195C63.4522 23.1312 63.2845 23.1312 63.2845 23.0753H63.2286C63.1169 23.0753 63.1169 23.0753 63.061 23.0195C62.9492 22.9636 62.7256 22.7959 62.558 22.1812C62.4462 21.7341 62.3903 21.1193 62.3903 20.784C62.3903 18.2691 62.8933 16.369 63.7316 15.9778H63.7875C63.8993 15.9219 64.011 15.8101 64.011 15.6425C64.011 15.5866 64.011 15.5307 63.9551 15.4748V15.4189C63.5639 14.6365 62.7256 14.0777 61.6079 13.7982H61.3844C60.4902 13.9659 59.4284 14.5806 58.0871 15.6984C57.7518 15.9778 57.4165 16.2572 57.137 16.5367V13.4629H64.9611C65.1846 13.4629 65.2964 13.2952 65.2964 13.1276V12.2334C65.3523 12.0099 65.1846 11.8422 64.9611 11.8422Z" fill="#ED1C24"/>
<path d="M27.0702 15.9778C27.0702 16.369 27.0702 16.7043 27.0143 17.0396C26.9026 18.6045 26.5114 20.0575 25.8966 21.3988C25.6731 21.9576 25.3936 22.4606 25.0583 22.9636C22.7111 26.6521 18.5755 29.1111 13.8811 29.1111C11.8692 29.1111 9.96902 28.664 8.29243 27.8816C3.82153 25.8138 0.691895 21.2311 0.691895 15.9778C0.691895 10.7804 3.70975 6.30947 8.013 4.18579C7.67768 4.63288 7.34236 5.07997 7.06293 5.58295C7.06293 5.63883 7.00704 5.63883 7.00704 5.69472C6.83938 5.86238 6.67173 5.97415 6.50407 6.14181C6.28052 6.30947 6.11286 6.53301 5.88932 6.70067L5.77755 6.81245L5.66577 6.92422C5.60989 6.9801 5.554 7.09188 5.44223 7.14776C5.33046 7.31542 5.1628 7.48308 5.05102 7.65074C4.49216 8.37726 4.04507 9.15967 3.70975 9.99796C3.65387 10.0539 3.65387 10.1656 3.59798 10.2215C3.54209 10.3333 3.54209 10.4451 3.48621 10.5009C3.48621 10.5568 3.43032 10.6127 3.43032 10.6686C3.37444 10.8363 3.31855 10.948 3.26266 11.1157C3.20678 11.2275 3.20678 11.3392 3.15089 11.3951C3.15089 11.451 3.095 11.5069 3.095 11.5628C3.095 11.6746 3.03912 11.7863 3.03912 11.8981L2.87146 12.9041C2.87146 13.0158 2.87146 13.0717 2.81557 13.1835V14.5248C2.81557 18.1015 4.43628 21.3429 7.06293 23.4107C9.07484 25.0314 11.5897 26.0373 14.3281 26.0373C16.843 26.0373 19.1344 25.2549 21.0345 23.8578C22.4317 22.8518 23.5494 21.5664 24.3877 20.0575C24.4995 19.834 24.6112 19.6663 24.723 19.4427C25.3936 18.0456 25.7848 16.5367 25.7848 14.916V14.5248C25.7848 14.1335 25.7848 13.7982 25.7289 13.407L25.7848 13.4629C25.9525 13.6306 26.1202 13.7423 26.2878 13.91C26.4555 13.6306 26.6231 13.407 26.7908 13.1276C26.9026 13.6306 26.9584 14.1335 27.0143 14.6924C27.0702 15.1954 27.0702 15.5866 27.0702 15.9778Z" fill="#ED1C24"/>
<path d="M15.4459 5.41528L12.9869 0.888489C8.90723 2.73274 6.11292 6.81243 6.11292 11.5628C6.11292 13.9659 6.83944 16.2013 8.06894 18.0456C7.95716 17.4308 7.95716 16.8161 7.95716 16.1454C8.01305 11.2833 11.0868 7.14775 15.4459 5.41528Z" fill="#F7941D"/>
<path d="M17.4019 7.65073C18.4079 7.3713 19.5256 7.25953 20.5875 7.25953C21.2581 7.25953 21.9846 7.31541 22.5994 7.42718L22.5435 5.41528L22.4317 1.39147C21.9846 1.33558 21.4816 1.27969 20.9787 1.27969C18.7432 1.27969 16.6754 2.00622 14.9988 3.17983L16.3401 5.63882C13.937 6.47712 11.981 8.15371 10.7515 10.3333C10.1367 11.3951 9.68963 12.6246 9.52197 13.91C9.85729 13.2394 10.2485 12.6246 10.6956 12.0657C12.3163 9.94207 14.6635 8.32136 17.4019 7.65073Z" fill="#ED1C24"/>
<path d="M23.2699 5.35941L23.3817 8.20961C22.4317 7.93017 21.4816 7.76251 20.4197 7.76251C18.4637 7.76251 16.6195 8.32138 14.9988 9.27144C12.9869 10.5009 11.4221 12.457 10.6396 14.7483C11.4221 13.6865 12.3721 12.7364 13.4898 12.0099C15.1106 10.948 17.0666 10.3333 19.1344 10.3333C20.6992 10.3333 22.1522 10.6686 23.4935 11.2834C24.4994 11.7304 25.3936 12.3452 26.176 13.1276L27.7409 10.7804L29.7528 7.70663C27.9644 6.25359 25.7289 5.35941 23.2699 5.35941Z" fill="#F7941D"/>
<path d="M25.7848 14.6365V15.0277C25.7848 17.3749 24.8347 19.331 24.723 19.5545C24.6112 19.7781 24.4994 19.9457 24.3877 20.1693C23.5494 21.6782 22.4316 22.9636 21.0345 23.9695C19.1343 25.3108 16.843 26.1491 14.3281 26.1491C11.5897 26.1491 9.01893 25.199 7.06291 23.5224C4.49214 21.3988 2.81555 18.2132 2.81555 14.6365V13.2952C2.81555 13.1835 2.81555 13.1276 2.87144 13.0158L3.0391 12.0099C3.0391 11.8981 3.09498 11.7863 3.09498 11.6745C3.09498 11.6187 3.15087 11.5628 3.15087 11.5069C3.20676 11.3951 3.20676 11.2833 3.26264 11.2275C3.31853 11.0598 3.37441 10.8921 3.4303 10.7804C3.4303 10.7245 3.48619 10.6686 3.48619 10.6127C3.54207 10.5009 3.54207 10.3892 3.59796 10.3333C3.65385 10.2774 3.65385 10.1656 3.70973 10.1097C4.04505 9.27144 4.54803 8.48903 5.051 7.76251C5.16278 7.59485 5.33043 7.42719 5.44221 7.25953C5.49809 7.20365 5.55398 7.09187 5.66575 7.03599C5.72164 6.9801 5.72164 6.92421 5.77752 6.92421C5.83341 6.86833 5.83341 6.81244 5.8893 6.81244C6.05696 6.5889 6.2805 6.42124 6.50405 6.25358C6.6717 6.08592 6.83936 5.97415 7.00702 5.80649C7.00702 5.86237 6.95114 5.86237 6.95114 5.91826C6.95114 5.97415 6.89525 6.03003 6.89525 6.03003C6.22461 7.3713 5.77752 8.99201 5.60987 10.6686C5.55398 11.1157 5.55398 11.5628 5.55398 12.0658C5.55398 18.1015 9.07481 22.9636 13.4339 22.9636H13.881C14.4958 22.9636 15.1105 22.8518 15.7253 22.74C18.6873 21.9576 20.8668 19.2192 20.8668 16.0337V15.866C20.8109 13.9659 20.0285 12.2334 18.7431 11.0598C19.6373 11.0598 20.5315 11.2275 21.3698 11.451C22.9905 11.8422 24.4435 12.6246 25.7289 13.6306L25.7848 13.6865C25.7289 13.91 25.7848 14.3012 25.7848 14.6365Z" fill="#F7941D"/>
<path d="M25.7848 14.6365V15.0277C25.7848 17.4867 24.6671 19.6104 24.6671 19.6104C24.5553 19.8339 24.4436 20.0016 24.3318 20.2252C23.4935 21.7341 22.3199 23.0195 20.9227 24.0254C18.9667 25.4785 16.6195 26.205 14.1605 26.205C11.478 26.205 8.90719 25.2549 6.8394 23.5783C4.15686 21.3988 2.59204 18.1015 2.59204 14.6365C2.59204 11.1716 4.15686 7.87428 6.8394 5.69472L6.95117 5.58295C6.95117 5.63883 6.89528 5.63883 6.89528 5.69472C6.89528 5.75061 6.8394 5.75061 6.8394 5.80649C4.21274 7.98606 2.70381 11.1716 2.70381 14.6365C2.70381 18.1015 4.21274 21.287 6.89528 23.5224C8.90719 25.199 11.5338 26.0932 14.1605 26.0932C16.5636 26.0932 18.9108 25.3667 20.8669 23.9136C22.264 22.9077 23.3817 21.6223 24.22 20.1134C24.3318 19.8898 24.4436 19.7222 24.4995 19.4986C24.4995 19.4986 25.6172 17.4308 25.6172 14.9718V14.5806C25.6172 14.1894 25.6172 13.8541 25.5613 13.4629V13.407L25.6172 13.4629L25.6731 13.5188C25.7848 13.9659 25.7848 14.3012 25.7848 14.6365Z" fill="#F7941D"/>
</svg>
