<svg width="302" height="81" viewBox="0 0 302 81" fill="none" xmlns="http://www.w3.org/2000/svg">
<g clip-path="url(#clip0_151_51)">
<path d="M96.6129 16.6707C95.9919 16.6707 95.4644 17.1216 95.3672 17.7355L88.1785 63.3244C88.1524 63.4909 88.1627 63.6611 88.2086 63.8233C88.2545 63.9855 88.3351 64.1358 88.4446 64.2639C88.5542 64.392 88.6902 64.4948 88.8433 64.5654C88.9964 64.6359 89.1629 64.6724 89.3315 64.6725H97.8567C98.4769 64.6725 99.0053 64.2207 99.1024 63.6077L101.214 50.2202C101.31 49.6072 101.839 49.1554 102.46 49.1554H110.211C119.267 49.1554 126.955 42.5476 128.359 33.5938C129.775 24.5643 122.721 16.6903 112.722 16.6707H96.6129ZM104.9 26.8479H111.102C116.207 26.8479 117.87 29.8605 117.344 33.192C116.818 36.5306 114.236 38.9898 109.297 38.9898H102.985L104.9 26.8479ZM145.698 29.9469C143.545 29.9549 141.068 30.396 138.288 31.5543C131.909 34.2131 128.845 39.708 127.545 43.714C127.545 43.714 123.404 55.936 132.759 62.6507C132.759 62.6507 141.435 69.1151 151.201 62.2525L151.033 63.3244C151.006 63.4907 151.017 63.6608 151.063 63.8229C151.108 63.9849 151.189 64.1351 151.298 64.2632C151.407 64.3913 151.543 64.4942 151.696 64.5648C151.849 64.6355 152.015 64.6722 152.184 64.6725H160.277C160.898 64.6725 161.425 64.2207 161.523 63.6077L166.445 32.3883C166.472 32.2218 166.462 32.0515 166.416 31.8892C166.37 31.7269 166.29 31.5765 166.181 31.4482C166.071 31.3199 165.935 31.2169 165.782 31.1461C165.629 31.0754 165.463 31.0386 165.294 31.0384H157.201C156.58 31.0384 156.052 31.4901 155.955 32.1031L155.691 33.7836C155.691 33.7836 152.157 29.9228 145.698 29.9469ZM145.963 39.8078C146.892 39.8078 147.742 39.9361 148.505 40.1811C151.997 41.302 153.977 44.6567 153.404 48.2929C152.697 52.7703 149.025 56.067 144.316 56.067C143.388 56.067 142.538 55.9396 141.774 55.6946C138.283 54.5737 136.291 51.219 136.864 47.5828C137.57 43.1054 141.254 39.8078 145.963 39.8078Z" fill="#003087"/>
<path d="M213.158 16.6707C212.537 16.6707 212.009 17.1216 211.912 17.7355L204.723 63.3244C204.697 63.4909 204.707 63.6611 204.753 63.8233C204.799 63.9855 204.88 64.1358 204.989 64.2639C205.099 64.392 205.235 64.4948 205.388 64.5654C205.541 64.6359 205.708 64.6724 205.876 64.6725H214.402C215.022 64.6725 215.55 64.2207 215.647 63.6077L217.759 50.2202C217.855 49.6072 218.384 49.1554 219.005 49.1554H226.755C235.812 49.1554 243.499 42.5476 244.902 33.5938C246.319 24.5643 239.265 16.6903 229.267 16.6707H213.158ZM221.445 26.8479H227.646C232.752 26.8479 234.415 29.8605 233.889 33.192C233.363 36.5306 230.782 38.9898 225.842 38.9898H219.53L221.445 26.8479ZM262.242 29.9469C260.089 29.9549 257.612 30.396 254.831 31.5543C248.453 34.2131 245.389 39.708 244.088 43.714C244.088 43.714 239.95 55.936 249.304 62.6507C249.304 62.6507 257.978 69.1151 267.746 62.2525L267.577 63.3244C267.551 63.4909 267.562 63.6611 267.607 63.8233C267.653 63.9855 267.734 64.1358 267.843 64.2639C267.953 64.392 268.089 64.4948 268.242 64.5654C268.395 64.6359 268.562 64.6724 268.73 64.6725H276.823C277.444 64.6725 277.971 64.2207 278.068 63.6077L282.993 32.3883C283.019 32.2216 283.009 32.0512 282.963 31.8888C282.918 31.7264 282.837 31.5758 282.728 31.4475C282.618 31.3192 282.482 31.2162 282.329 31.1456C282.175 31.0749 282.009 31.0384 281.84 31.0384H273.747C273.126 31.0384 272.597 31.4901 272.501 32.1031L272.237 33.7836C272.237 33.7836 268.701 29.9228 262.242 29.9469ZM262.507 39.8078C263.436 39.8078 264.286 39.9361 265.049 40.1811C268.541 41.302 270.52 44.6567 269.948 48.2929C269.241 52.7703 265.569 56.067 260.86 56.067C259.932 56.067 259.082 55.9396 258.318 55.6946C254.827 54.5737 252.835 51.219 253.408 47.5828C254.114 43.1054 257.798 39.8078 262.507 39.8078Z" fill="#0070E0"/>
<path d="M170.286 31.0384C169.644 31.0384 169.188 31.6648 169.384 32.2751L178.257 59.8084L170.234 72.7834C169.845 73.4133 170.297 74.2268 171.038 74.2268H180.52C180.791 74.2266 181.058 74.1565 181.294 74.0232C181.53 73.8899 181.728 73.6979 181.868 73.4659L206.648 32.4729C207.028 31.843 206.574 31.0375 205.838 31.0375H196.357C196.083 31.0377 195.814 31.1093 195.576 31.245C195.338 31.3808 195.14 31.5761 195.001 31.8118L185.247 48.2796L180.295 31.9339C180.134 31.4019 179.643 31.0375 179.088 31.0375L170.286 31.0384Z" fill="#003087"/>
<path d="M292.188 16.6707C291.568 16.6707 291.04 17.1225 290.943 17.7355L283.752 63.3226C283.726 63.4892 283.736 63.6596 283.782 63.822C283.827 63.9844 283.908 64.135 284.017 64.2633C284.127 64.3916 284.263 64.4946 284.416 64.5653C284.57 64.6359 284.736 64.6725 284.905 64.6725H293.43C294.05 64.6725 294.579 64.2207 294.676 63.6077L301.865 18.0189C301.891 17.8525 301.881 17.6824 301.835 17.5204C301.789 17.3583 301.708 17.2081 301.599 17.08C301.49 16.9519 301.354 16.849 301.201 16.7784C301.048 16.7077 300.882 16.671 300.713 16.6707H292.188Z" fill="#0070E0"/>
<path d="M25.5401 16.6707C24.9909 16.6712 24.4599 16.8675 24.0425 17.2243C23.625 17.5812 23.3485 18.0752 23.2626 18.6176L19.4785 42.618C19.6549 41.4971 20.6208 40.6712 21.7559 40.6712H32.8446C44.0046 40.6712 53.4743 32.5299 55.2047 21.4974C55.3334 20.6737 55.4064 19.8423 55.423 19.0088C52.5869 17.5217 49.2554 16.6707 45.6049 16.6707H25.5401Z" fill="#001C64"/>
<path d="M55.423 19.0097C55.4064 19.8432 55.3334 20.6746 55.2046 21.4983C53.4743 32.5308 44.0037 40.6721 32.8446 40.6721H21.7559C20.6216 40.6721 19.6549 41.4971 19.4785 42.6189L15.9991 64.6734L13.8196 78.5091C13.7771 78.7764 13.793 79.0497 13.8664 79.3103C13.9398 79.5708 14.0688 79.8123 14.2446 80.0182C14.4204 80.224 14.6387 80.3893 14.8845 80.5025C15.1304 80.6158 15.3978 80.6744 15.6685 80.6742H27.7044C28.2535 80.6738 28.7845 80.4775 29.202 80.1206C29.6194 79.7638 29.8959 79.2698 29.9818 78.7274L33.152 58.6198C33.2379 58.0771 33.5147 57.5828 33.9325 57.2259C34.3503 56.8691 34.8818 56.673 35.4312 56.6729H42.5175C53.6775 56.6729 63.1472 48.5317 64.8775 37.4992C66.1062 29.6689 62.1626 22.5434 55.423 19.0097Z" fill="#0070E0"/>
<path d="M11.8663 0.672729C10.732 0.672729 9.76532 1.49781 9.5889 2.61782L0.144095 62.5084C-0.0349996 63.6453 0.843566 64.6735 1.99476 64.6735H16.0006L19.4783 42.6191L23.2624 18.6187C23.3483 18.0763 23.6248 17.5823 24.0422 17.2254C24.4597 16.8686 24.9907 16.6723 25.5399 16.6718H45.6046C49.256 16.6718 52.5867 17.5236 55.4228 19.0098C55.617 8.96542 47.3287 0.672729 35.9335 0.672729H11.8663Z" fill="#003087"/>
</g>
<defs>
<clipPath id="clip0_151_51">
<rect width="301.758" height="80" fill="white" transform="translate(0.121094 0.672501)"/>
</clipPath>
</defs>
</svg>
