<svg width="24" height="24" viewBox="0 0 24 24" fill="none" xmlns="http://www.w3.org/2000/svg">
<path d="M23 12V2.83333C23 2.3471 22.8068 1.88079 22.463 1.53697C22.1192 1.19315 21.6529 1 21.1667 1H2.83333C2.3471 1 1.88079 1.19315 1.53697 1.53697C1.19315 1.88079 1 2.3471 1 2.83333V21.1667C1 21.6529 1.19315 22.1192 1.53697 22.463C1.88079 22.8068 2.3471 23 2.83333 23H12" stroke="#E4E29C" stroke-width="2" stroke-linecap="round" stroke-linejoin="round"/>
<path d="M16.889 20.5556C18.914 20.5556 20.5556 18.9139 20.5556 16.8889C20.5556 14.8638 18.914 13.2222 16.889 13.2222C14.8639 13.2222 13.2223 14.8638 13.2223 16.8889C13.2223 18.9139 14.8639 20.5556 16.889 20.5556Z" stroke="#E4E29C" stroke-width="2"/>
<path d="M19.9446 19.3333L23.0001 21.7778M5.88904 7.11111H18.1113M5.88904 12H10.7779" stroke="#E4E29C" stroke-width="2" stroke-linecap="round" stroke-linejoin="round"/>
</svg>
