<svg width="30" height="24" viewBox="0 0 30 24" fill="none" xmlns="http://www.w3.org/2000/svg">
<path d="M9.27827 23.9993C20.4248 23.9993 26.5223 14.7635 26.5223 6.76823C26.5223 6.50978 26.5223 6.24764 26.5112 5.98919C27.6983 5.12983 28.7229 4.06588 29.5369 2.8472C28.428 3.33613 27.2529 3.65837 26.0497 3.80346C27.3171 3.04591 28.2663 1.85397 28.7209 0.449179C27.5302 1.1546 26.2269 1.6498 24.8682 1.9131C23.9548 0.940273 22.746 0.295804 21.4292 0.0795199C20.1123 -0.136764 18.7609 0.0872068 17.5843 0.716741C16.4077 1.34627 15.4714 2.34624 14.9207 3.56174C14.3699 4.77724 14.2353 6.14044 14.5377 7.44019C12.1281 7.31937 9.77083 6.6934 7.61875 5.60289C5.46667 4.51238 3.56784 2.98168 2.04543 1.11007C1.27256 2.44492 1.0367 4.02388 1.38573 5.52632C1.73477 7.02876 2.64254 8.34204 3.92471 9.19948C2.96392 9.16684 2.02424 8.90884 1.18148 8.44629V8.52936C1.18313 9.92771 1.66756 11.2826 2.55286 12.365C3.43817 13.4474 4.67005 14.191 6.04029 14.47C5.52019 14.6132 4.98293 14.6847 4.44346 14.6823C4.06314 14.6834 3.68358 14.6482 3.30998 14.577C3.69726 15.7808 4.45134 16.8332 5.46663 17.587C6.48191 18.3408 7.70753 18.7581 8.97183 18.7805C6.82405 20.4674 4.17098 21.3824 1.43992 21.3779C0.958695 21.3799 0.477802 21.3522 0 21.2948C2.77188 23.062 5.991 24.0003 9.27827 23.9993Z" fill="white"/>
</svg>
